<svg xmlns="http://www.w3.org/2000/svg" height="40" viewBox="0 -960 960 960" width="40"><path d="M7.667-105.334v-179q0-38.333 27.5-65.333t64.833-27h143q20.333 0 33.833 6.667t22.5 19.333q31 44.667 78.5 69.334 47.5 24.666 102.167 24.666 54 0 102-24.666 48-24.667 80.333-69.334Q670-363.333 683.5-370q13.5-6.667 34.167-6.667H861q38.333 0 65.333 27t27 65.333v179H648.667v-116.667q-36.333 25-79.333 39.167-43.001 14.167-89.334 14.167-45.333 0-88.334-13.834-43-13.833-79.333-39.5v116.667H7.667ZM480-326.667q-32.333 0-61.167-14.833-28.833-14.833-47.5-41.833-21.666-30.334-50.333-44.5-28.666-14.167-64.666-17.5 35.333-31 101-50.667Q423-515.666 480-515.666q57.667 0 123.5 19.666 65.833 19.667 101.833 50.667Q668.666-442 640-428q-28.667 14-49.667 44.667-18.333 26.333-48 41.499-29.666 15.167-62.333 15.167ZM160-470q-50 0-85.666-35.667Q38.666-541.333 38.666-592q0-50 35.666-85.667Q110-713.333 160-713.333q50.667 0 86.333 35.666Q282-642 282-592q0 50.667-35.667 86.333Q210.667-470 160-470Zm640 0q-50 0-85.667-35.667-35.666-35.666-35.666-86.333 0-50 35.666-85.667Q750-713.333 800-713.333q50.667 0 86.333 35.666Q922-642 922-592q0 50.667-35.667 86.333Q850.667-470 800-470ZM480-609q-50 0-85.666-36-35.667-36-35.667-86 0-50.667 35.667-86Q430-852.333 480-852.333q50.667 0 86.333 35.333Q602-781.667 602-731q0 50-35.667 86-35.666 36-86.333 36Z"/></svg>